{
  "accessors": [
    {
      "bufferView": 2,
      "componentType": 5126,
      "count": 6402,
      "max": [
        19.932159423828125,
        20.7352294921875,
        35.468284606933594
      ],
      "min": [
        -17.553010940551758,
        -21.260427474975586,
        -22.442768096923828
      ],
      "type": "VEC3"
    },
    {
      "bufferView": 2,
      "byteOffset": 76824,
      "componentType": 5126,
      "count": 6402,
      "max": [
        0.9997968673706055,
        0.9996785521507263,
        0.9994451403617859
      ],
      "min": [
        -0.9996727705001831,
        -0.9990474581718445,
        -0.9999372363090515
      ],
      "type": "VEC3"
    },
    {
      "bufferView": 3,
      "componentType": 5126,
      "count": 6402,
      "max": [
        0.9986717700958252,
        0.9998397827148438,
        0.9996674656867981,
        1.0
      ],
      "min": [
        -0.9999443888664246,
        -0.9999210834503174,
        -0.9999231696128845,
        1.0
      ],
      "type": "VEC4"
    },
    {
      "bufferView": 1,
      "componentType": 5126,
      "count": 6402,
      "max": [
        0.9861840009689331,
        0.9861840009689331
      ],
      "min": [
        0.01381599996238947,
        0.01381599996238947
      ],
      "type": "VEC2"
    },
    {
      "bufferView": 0,
      "componentType": 5125,
      "count": 36864,
      "type": "SCALAR"
    }
  ],
  "asset": {
    "extras": {
      "author": "Hodisfut (https://sketchfab.com/Hodisfut)",
      "license": "CC-BY-4.0 (http://creativecommons.org/licenses/by/4.0/)",
      "source": "https://sketchfab.com/3d-models/met01-meteor-af6e52792eed4302bf04368aa5e9a67e",
      "title": "MET01 Meteor"
    },
    "generator": "Sketchfab-13.46.0",
    "version": "2.0"
  },
  "bufferViews": [
    {
      "buffer": 0,
      "byteLength": 147456,
      "name": "floatBufferViews",
      "target": 34963
    },
    {
      "buffer": 0,
      "byteLength": 51216,
      "byteOffset": 147456,
      "byteStride": 8,
      "name": "floatBufferViews",
      "target": 34962
    },
    {
      "buffer": 0,
      "byteLength": 153648,
      "byteOffset": 198672,
      "byteStride": 12,
      "name": "floatBufferViews",
      "target": 34962
    },
    {
      "buffer": 0,
      "byteLength": 102432,
      "byteOffset": 352320,
      "byteStride": 16,
      "name": "floatBufferViews",
      "target": 34962
    }
  ],
  "buffers": [
    {
      "byteLength": 454752,
      "uri": "scene.bin"
    }
  ],
  "images": [
    {
      "uri": "textures/sphereSG_baseColor.png"
    },
    {
      "uri": "textures/sphereSG_metallicRoughness.png"
    },
    {
      "uri": "textures/sphereSG_normal.png"
    }
  ],
  "materials": [
    {
      "doubleSided": true,
      "name": "sphereSG",
      "normalTexture": {
        "index": 2
      },
      "pbrMetallicRoughness": {
        "baseColorTexture": {
          "index": 0
        },
        "metallicRoughnessTexture": {
          "index": 1
        }
      }
    }
  ],
  "meshes": [
    {
      "name": "Object_0",
      "primitives": [
        {
          "attributes": {
            "NORMAL": 1,
            "POSITION": 0,
            "TANGENT": 2,
            "TEXCOORD_0": 3
          },
          "indices": 4,
          "material": 0,
          "mode": 4
        }
      ]
    }
  ],
  "nodes": [
    {
      "children": [
        1
      ],
      "matrix": [
        1.0,
        0.0,
        0.0,
        0.0,
        0.0,
        2.220446049250313e-16,
        -1.0,
        0.0,
        0.0,
        1.0,
        2.220446049250313e-16,
        0.0,
        0.0,
        0.0,
        0.0,
        1.0
      ],
      "name": "Sketchfab_model"
    },
    {
      "children": [
        2
      ],
      "name": "MET01.obj.cleaner.materialmerger.gles"
    },
    {
      "mesh": 0,
      "name": "Object_2"
    }
  ],
  "samplers": [
    {
      "magFilter": 9729,
      "minFilter": 9987,
      "wrapS": 10497,
      "wrapT": 10497
    }
  ],
  "scene": 0,
  "scenes": [
    {
      "name": "Sketchfab_Scene",
      "nodes": [
        0
      ]
    }
  ],
  "textures": [
    {
      "sampler": 0,
      "source": 0
    },
    {
      "sampler": 0,
      "source": 1
    },
    {
      "sampler": 0,
      "source": 2
    }
  ]
}
