{
  "accessors": [
    {
      "bufferView": 2,
      "componentType": 5126,
      "count": 65532,
      "max": [
        227.90533447265625,
        420.5710754394531,
        299.643798828125
      ],
      "min": [
        -155.92059326171875,
        145.6549835205078,
        -99.22696685791016
      ],
      "type": "VEC3"
    },
    {
      "bufferView": 2,
      "byteOffset": 786384,
      "componentType": 5126,
      "count": 65532,
      "max": [
        0.9999899864196777,
        0.9999902248382568,
        0.9995926022529602
      ],
      "min": [
        -0.9999344944953918,
        -0.9996946454048157,
        -0.999958872795105
      ],
      "type": "VEC3"
    },
    {
      "bufferView": 3,
      "componentType": 5126,
      "count": 65532,
      "max": [
        0.9974386096000671,
        0.9999991655349731,
        0.9997771382331848,
        1.0
      ],
      "min": [
        -0.907820999622345,
        -0.9251739382743835,
        -0.9999213218688965,
        1.0
      ],
      "type": "VEC4"
    },
    {
      "bufferView": 1,
      "componentType": 5126,
      "count": 65532,
      "max": [
        0.9596719741821289,
        0.998170018196106
      ],
      "min": [
        0.0006849999772384763,
        0.0004090000002179295
      ],
      "type": "VEC2"
    },
    {
      "bufferView": 0,
      "componentType": 5125,
      "count": 380202,
      "type": "SCALAR"
    },
    {
      "bufferView": 2,
      "byteOffset": 1572768,
      "componentType": 5126,
      "count": 36837,
      "max": [
        213.83023071289063,
        420.82244873046875,
        299.6044006347656
      ],
      "min": [
        -153.251953125,
        138.7320098876953,
        -99.2266616821289
      ],
      "type": "VEC3"
    },
    {
      "bufferView": 2,
      "byteOffset": 2014812,
      "componentType": 5126,
      "count": 36837,
      "max": [
        0.9788921475410461,
        0.9999922513961792,
        0.9987637400627136
      ],
      "min": [
        -0.9826463460922241,
        -0.9999913573265076,
        -0.999958872795105
      ],
      "type": "VEC3"
    },
    {
      "bufferView": 3,
      "byteOffset": 1048512,
      "componentType": 5126,
      "count": 36837,
      "max": [
        0.9996253252029419,
        0.9999991655349731,
        0.9999932646751404,
        1.0
      ],
      "min": [
        -0.6741973757743835,
        -0.8761609792709351,
        -0.9999270439147949,
        1.0
      ],
      "type": "VEC4"
    },
    {
      "bufferView": 1,
      "byteOffset": 524256,
      "componentType": 5126,
      "count": 36837,
      "max": [
        0.9988729953765869,
        0.9982789754867554
      ],
      "min": [
        0.0005540000274777412,
        0.023862000554800034
      ],
      "type": "VEC2"
    },
    {
      "bufferView": 0,
      "byteOffset": 1520808,
      "componentType": 5125,
      "count": 209622,
      "type": "SCALAR"
    }
  ],
  "asset": {
    "extras": {
      "author": "Hodisfut (https://sketchfab.com/Hodisfut)",
      "license": "CC-BY-4.0 (http://creativecommons.org/licenses/by/4.0/)",
      "source": "https://sketchfab.com/3d-models/met02-meteor-08ebcae74ce445348fda1acd37de682d",
      "title": "MET02 Meteor"
    },
    "generator": "Sketchfab-13.46.0",
    "version": "2.0"
  },
  "bufferViews": [
    {
      "buffer": 0,
      "byteLength": 2359296,
      "name": "floatBufferViews",
      "target": 34963
    },
    {
      "buffer": 0,
      "byteLength": 818952,
      "byteOffset": 2359296,
      "byteStride": 8,
      "name": "floatBufferViews",
      "target": 34962
    },
    {
      "buffer": 0,
      "byteLength": 2456856,
      "byteOffset": 3178248,
      "byteStride": 12,
      "name": "floatBufferViews",
      "target": 34962
    },
    {
      "buffer": 0,
      "byteLength": 1637904,
      "byteOffset": 5635104,
      "byteStride": 16,
      "name": "floatBufferViews",
      "target": 34962
    }
  ],
  "buffers": [
    {
      "byteLength": 7273008,
      "uri": "scene.bin"
    }
  ],
  "images": [
    {
      "uri": "textures/sphereSG2_baseColor.png"
    },
    {
      "uri": "textures/sphereSG2_metallicRoughness.png"
    },
    {
      "uri": "textures/sphereSG2_normal.png"
    }
  ],
  "materials": [
    {
      "doubleSided": true,
      "name": "sphereSG2",
      "normalTexture": {
        "index": 2
      },
      "pbrMetallicRoughness": {
        "baseColorTexture": {
          "index": 0
        },
        "metallicRoughnessTexture": {
          "index": 1
        }
      }
    }
  ],
  "meshes": [
    {
      "name": "Object_0",
      "primitives": [
        {
          "attributes": {
            "NORMAL": 1,
            "POSITION": 0,
            "TANGENT": 2,
            "TEXCOORD_0": 3
          },
          "indices": 4,
          "material": 0,
          "mode": 4
        }
      ]
    },
    {
      "name": "Object_1",
      "primitives": [
        {
          "attributes": {
            "NORMAL": 6,
            "POSITION": 5,
            "TANGENT": 7,
            "TEXCOORD_0": 8
          },
          "indices": 9,
          "material": 0,
          "mode": 4
        }
      ]
    }
  ],
  "nodes": [
    {
      "children": [
        1
      ],
      "matrix": [
        1.0,
        0.0,
        0.0,
        0.0,
        0.0,
        2.220446049250313e-16,
        -1.0,
        0.0,
        0.0,
        1.0,
        2.220446049250313e-16,
        0.0,
        0.0,
        0.0,
        0.0,
        1.0
      ],
      "name": "Sketchfab_model"
    },
    {
      "children": [
        2,
        3
      ],
      "name": "MET02.obj.cleaner.materialmerger.gles"
    },
    {
      "mesh": 0,
      "name": "Object_2"
    },
    {
      "mesh": 1,
      "name": "Object_3"
    }
  ],
  "samplers": [
    {
      "magFilter": 9729,
      "minFilter": 9987,
      "wrapS": 10497,
      "wrapT": 10497
    }
  ],
  "scene": 0,
  "scenes": [
    {
      "name": "Sketchfab_Scene",
      "nodes": [
        0
      ]
    }
  ],
  "textures": [
    {
      "sampler": 0,
      "source": 0
    },
    {
      "sampler": 0,
      "source": 1
    },
    {
      "sampler": 0,
      "source": 2
    }
  ]
}
