{
  "accessors": [
    {
      "bufferView": 2,
      "componentType": 5126,
      "count": 24834,
      "max": [
        200.10421752929688,
        68.64642333984375,
        95.38574981689453
      ],
      "min": [
        -202.18504333496094,
        -121.05221557617188,
        -110.98114013671875
      ],
      "type": "VEC3"
    },
    {
      "bufferView": 2,
      "byteOffset": 298008,
      "componentType": 5126,
      "count": 24834,
      "max": [
        0.9997396469116211,
        0.9999991059303284,
        0.9999503493309021
      ],
      "min": [
        -0.9998828768730164,
        -0.9999932646751404,
        -0.9999236464500427
      ],
      "type": "VEC3"
    },
    {
      "bufferView": 3,
      "componentType": 5126,
      "count": 24834,
      "max": [
        0.8592697978019714,
        0.99994957447052,
        0.9999665021896362,
        1.0
      ],
      "min": [
        -0.9094481468200684,
        -0.5753521919250488,
        -0.9999634623527527,
        1.0
      ],
      "type": "VEC4"
    },
    {
      "bufferView": 1,
      "componentType": 5126,
      "count": 24834,
      "max": [
        0.9990800023078918,
        0.9192759990692139
      ],
      "min": [
        0.0032319999299943447,
        0.04239000007510185
      ],
      "type": "VEC2"
    },
    {
      "bufferView": 0,
      "componentType": 5125,
      "count": 147456,
      "type": "SCALAR"
    }
  ],
  "asset": {
    "extras": {
      "author": "Hodisfut (https://sketchfab.com/Hodisfut)",
      "license": "CC-BY-4.0 (http://creativecommons.org/licenses/by/4.0/)",
      "source": "https://sketchfab.com/3d-models/met03-meteor-162d00295e904d8ea412dc97f45884cb",
      "title": "MET03 Meteor"
    },
    "generator": "Sketchfab-13.46.0",
    "version": "2.0"
  },
  "bufferViews": [
    {
      "buffer": 0,
      "byteLength": 589824,
      "name": "floatBufferViews",
      "target": 34963
    },
    {
      "buffer": 0,
      "byteLength": 198672,
      "byteOffset": 589824,
      "byteStride": 8,
      "name": "floatBufferViews",
      "target": 34962
    },
    {
      "buffer": 0,
      "byteLength": 596016,
      "byteOffset": 788496,
      "byteStride": 12,
      "name": "floatBufferViews",
      "target": 34962
    },
    {
      "buffer": 0,
      "byteLength": 397344,
      "byteOffset": 1384512,
      "byteStride": 16,
      "name": "floatBufferViews",
      "target": 34962
    }
  ],
  "buffers": [
    {
      "byteLength": 1781856,
      "uri": "scene.bin"
    }
  ],
  "images": [
    {
      "uri": "textures/sphereSG3_baseColor.png"
    },
    {
      "uri": "textures/sphereSG3_metallicRoughness.png"
    },
    {
      "uri": "textures/sphereSG3_normal.png"
    }
  ],
  "materials": [
    {
      "doubleSided": true,
      "name": "sphereSG3",
      "normalTexture": {
        "index": 2
      },
      "pbrMetallicRoughness": {
        "baseColorTexture": {
          "index": 0
        },
        "metallicRoughnessTexture": {
          "index": 1
        }
      }
    }
  ],
  "meshes": [
    {
      "name": "Object_0",
      "primitives": [
        {
          "attributes": {
            "NORMAL": 1,
            "POSITION": 0,
            "TANGENT": 2,
            "TEXCOORD_0": 3
          },
          "indices": 4,
          "material": 0,
          "mode": 4
        }
      ]
    }
  ],
  "nodes": [
    {
      "children": [
        1
      ],
      "matrix": [
        1.0,
        0.0,
        0.0,
        0.0,
        0.0,
        2.220446049250313e-16,
        -1.0,
        0.0,
        0.0,
        1.0,
        2.220446049250313e-16,
        0.0,
        0.0,
        0.0,
        0.0,
        1.0
      ],
      "name": "Sketchfab_model"
    },
    {
      "children": [
        2
      ],
      "name": "MET03.obj.cleaner.materialmerger.gles"
    },
    {
      "mesh": 0,
      "name": "Object_2"
    }
  ],
  "samplers": [
    {
      "magFilter": 9729,
      "minFilter": 9987,
      "wrapS": 10497,
      "wrapT": 10497
    }
  ],
  "scene": 0,
  "scenes": [
    {
      "name": "Sketchfab_Scene",
      "nodes": [
        0
      ]
    }
  ],
  "textures": [
    {
      "sampler": 0,
      "source": 0
    },
    {
      "sampler": 0,
      "source": 1
    },
    {
      "sampler": 0,
      "source": 2
    }
  ]
}
